<?xml version="1.0" encoding="UTF-8"?><svg id="a" xmlns="http://www.w3.org/2000/svg" viewBox="0 0 35.98 35.98"><defs><style>.b{fill:#4890cd;}</style></defs><path class="b" d="M17.99,3.24c4.8,0,5.37,.02,7.27,.1,1.75,.08,2.71,.37,3.34,.62,.84,.33,1.44,.72,2.07,1.35,.63,.63,1.02,1.23,1.35,2.07,.25,.63,.54,1.59,.62,3.34,.09,1.9,.1,2.47,.1,7.27s-.02,5.37-.1,7.27c-.08,1.75-.37,2.71-.62,3.34-.33,.84-.72,1.44-1.35,2.07s-1.23,1.02-2.07,1.35c-.63,.25-1.59,.54-3.34,.62-1.9,.09-2.47,.1-7.27,.1s-5.37-.02-7.27-.1c-1.75-.08-2.71-.37-3.34-.62-.84-.33-1.44-.72-2.07-1.35-.63-.63-1.02-1.23-1.35-2.07-.25-.63-.54-1.59-.62-3.34-.09-1.9-.1-2.47-.1-7.27s.02-5.37,.1-7.27c.08-1.75,.37-2.71,.62-3.34,.33-.84,.72-1.44,1.35-2.07,.63-.63,1.23-1.02,2.07-1.35,.63-.25,1.59-.54,3.34-.62,1.9-.09,2.47-.1,7.27-.1m0-3.24c-4.89,0-5.5,.02-7.42,.11-1.92,.09-3.22,.39-4.37,.84-1.18,.46-2.19,1.07-3.19,2.08-1,1-1.62,2-2.07,3.19C.5,7.35,.2,8.66,.11,10.57c-.09,1.92-.11,2.53-.11,7.42s.02,5.5,.11,7.42c.09,1.92,.39,3.22,.84,4.37,.46,1.18,1.07,2.19,2.07,3.19s2,1.62,3.19,2.08c1.14,.44,2.45,.75,4.37,.84,1.92,.09,2.53,.11,7.42,.11s5.5-.02,7.42-.11c1.91-.09,3.22-.39,4.37-.84,1.18-.46,2.19-1.07,3.19-2.08,1-1,1.62-2,2.08-3.19,.44-1.14,.75-2.45,.84-4.37,.09-1.92,.11-2.53,.11-7.42s-.02-5.5-.11-7.42c-.09-1.92-.39-3.22-.84-4.37-.46-1.18-1.07-2.19-2.08-3.19-1-1-2-1.62-3.19-2.08-1.14-.44-2.45-.75-4.37-.84-1.92-.09-2.53-.11-7.42-.11"/><path class="b" d="M17.99,8.75c-5.1,0-9.24,4.14-9.24,9.24s4.14,9.24,9.24,9.24,9.24-4.14,9.24-9.24-4.14-9.24-9.24-9.24m0,15.24c-3.31,0-6-2.69-6-6s2.68-6,6-6,6,2.68,6,6-2.68,6-6,6"/><path class="b" d="M29.75,8.39c0,1.19-.97,2.16-2.16,2.16s-2.16-.97-2.16-2.16,.97-2.16,2.16-2.16,2.16,.97,2.16,2.16"/></svg>