<?xml version="1.0" encoding="UTF-8"?><svg id="a" xmlns="http://www.w3.org/2000/svg" viewBox="0 0 34.97 28.42"><defs><style>.b{fill:#4890cd;}</style></defs><path class="b" d="M0,25.19c3.17,2.04,6.95,3.22,11,3.22,13.32,0,20.84-11.25,20.39-21.34,1.4-1.01,2.62-2.27,3.58-3.71-1.29,.57-2.67,.96-4.12,1.13,1.48-.89,2.62-2.29,3.15-3.97-1.39,.82-2.92,1.42-4.55,1.74-1.31-1.39-3.17-2.27-5.24-2.27-4.63,0-8.03,4.32-6.99,8.81-5.96-.3-11.25-3.16-14.79-7.5-1.88,3.23-.97,7.44,2.22,9.58-1.18-.04-2.28-.36-3.25-.9-.08,3.32,2.3,6.43,5.75,7.13-1.01,.27-2.12,.34-3.24,.12,.91,2.85,3.56,4.92,6.7,4.98-3.02,2.36-6.81,3.42-10.62,2.97Z"/></svg>